<?xml version="1.0" encoding="UTF-8" standalone="no"?>
<!-- Created with Inkscape (http://www.inkscape.org/) -->

<svg
   xmlns:dc="http://purl.org/dc/elements/1.1/"
   xmlns:cc="http://creativecommons.org/ns#"
   xmlns:rdf="http://www.w3.org/1999/02/22-rdf-syntax-ns#"
   xmlns:svg="http://www.w3.org/2000/svg"
   xmlns="http://www.w3.org/2000/svg"
   xmlns:sodipodi="http://sodipodi.sourceforge.net/DTD/sodipodi-0.dtd"
   xmlns:inkscape="http://www.inkscape.org/namespaces/inkscape"
   width="26.929134pc"
   height="4.9606299pc"
   viewBox="0 0 114 21"
   version="1.1"
   id="svg4646"
   inkscape:version="0.92.1 unknown"
   sodipodi:docname="new-logo.svg">
  <defs
     id="defs4640" />
  <sodipodi:namedview
     id="base"
     pagecolor="#ffffff"
     bordercolor="#666666"
     borderopacity="1.0"
     inkscape:pageopacity="0.0"
     inkscape:pageshadow="2"
     inkscape:zoom="2.8"
     inkscape:cx="203.857"
     inkscape:cy="38.004578"
     inkscape:document-units="mm"
     inkscape:current-layer="layer1"
     showgrid="false"
     inkscape:window-width="1855"
     inkscape:window-height="1056"
     inkscape:window-x="65"
     inkscape:window-y="24"
     inkscape:window-maximized="1"
     showguides="true"
     inkscape:guide-bbox="true"
     inkscape:snap-global="false"
     fit-margin-top="0"
     fit-margin-left="0"
     fit-margin-right="0"
     fit-margin-bottom="0"
     inkscape:showpageshadow="false"
     units="px" />
  <metadata
     id="metadata4643">
    <rdf:RDF>
      <cc:Work
         rdf:about="">
        <dc:format>image/svg+xml</dc:format>
        <dc:type
           rdf:resource="http://purl.org/dc/dcmitype/StillImage" />
        <dc:title></dc:title>
      </cc:Work>
    </rdf:RDF>
  </metadata>
  <g
     inkscape:label="Layer 1"
     inkscape:groupmode="layer"
     id="layer1"
     transform="translate(-6.537083,-11.494163)">
    <text
       xml:space="preserve"
       style="font-style:normal;font-weight:normal;font-size:10.58333302px;line-height:1.25;font-family:sans-serif;letter-spacing:0px;word-spacing:0px;fill:#01386e;fill-opacity:1;stroke:none;stroke-width:0.26458332"
       x="36.481159"
       y="31.98107"
       id="text4587"><tspan
         sodipodi:role="line"
         id="tspan4585"
         x="36.481159"
         y="31.98107"
         style="font-style:normal;font-variant:normal;font-weight:normal;font-stretch:normal;font-size:19.75555611px;font-family:'Abyssinica SIL';-inkscape-font-specification:'Abyssinica SIL, Normal';font-variant-ligatures:normal;font-variant-caps:normal;font-variant-numeric:normal;font-feature-settings:normal;text-align:start;writing-mode:lr-tb;text-anchor:start;fill:#01386e;stroke-width:0.26458332">Solu ions</tspan></text>
    <path
       inkscape:connector-curvature="0"
       id="path4841-2"
       style="font-style:normal;font-weight:normal;font-size:10.58333302px;line-height:1.25;font-family:sans-serif;letter-spacing:0px;word-spacing:0px;fill:#ba7500;fill-opacity:1;stroke:none;stroke-width:0.25291467"
       d="m 77.823014,16.37768 v 0.0321 c 1.8e-4,0.005 -0.002,0.0111 -0.003,0.0165 5.3e-4,0.002 0.003,9.1e-4 0.003,0.004 v 0.16762 0.0893 4.8e-4 0.0151 0.0255 9.2e-4 0.0151 0.0671 0.0227 c 0,9.1e-4 2.1e-4,0.003 0,0.004 -1.5e-4,9.1e-4 -7.9e-4,0.002 -0.001,0.004 0.002,0.0496 0.001,0.0996 0.001,0.14921 7e-5,0.0523 4e-5,0.10449 0,0.15676 -3e-5,0.0188 -1e-5,0.0374 0,0.0562 v 0.005 c 0,9.2e-4 0,0.002 0,0.003 v 9.2e-4 0.0401 0.007 c 0,0.006 2.7e-4,0.0133 0,0.0198 v 0.0175 0.0472 c 0,0.007 5.3e-4,0.0164 -0.001,0.0236 -2.1e-4,9.1e-4 -7.9e-4,0.002 -10e-4,0.004 4e-5,0.003 -1e-5,0.006 0,0.009 2.7e-4,0.002 0.002,9.1e-4 0.002,0.003 v 0.0638 0.0189 c 0.001,9.1e-4 0.003,0.002 0.003,0.004 v 9.1e-4 0.002 0.007 0.0298 c 0,0.002 -0.001,0.002 -0.002,0.003 h 0.003 v 12.83975 c 0,0.11333 -0.0455,0.22288 -0.13642,0.32865 -0.0827,0.10577 -0.21498,0.16621 -0.39688,0.18132 l -1.62471,0.0906 v 0.99726 h 6.88331 v -0.99726 l -1.62471,-0.0906 c -0.1819,-0.0151 -0.31833,-0.0756 -0.40928,-0.18132 -0.0827,-0.10577 -0.12402,-0.21532 -0.12402,-0.32865 V 17.51402 h 0.007 v -0.0298 -0.50712 -0.59639 z m -0.0212,0.53309 c -0.004,0.005 -0.008,0.0115 -0.0109,0.005 4e-5,0.0119 -0.003,0.0253 -0.007,0.0397 0.007,0.0198 0.0129,0.0414 0.0181,0.0638 -3e-5,-0.01 0,-0.0198 0,-0.0298 1.6e-4,-0.0261 -1.9e-4,-0.0523 0,-0.0784 z m 4.45038,0.36075 v 0.10578 c 0.0169,9.1e-4 0.0329,8.9e-4 0.0501,0.002 -0.0193,-0.0316 -0.0363,-0.0672 -0.0501,-0.10766 z" />
    <rect
       style="opacity:1;vector-effect:none;fill:#ba7500;fill-opacity:1;fill-rule:nonzero;stroke:none;stroke-width:1.57932198;stroke-linecap:butt;stroke-linejoin:miter;stroke-miterlimit:4;stroke-dasharray:none;stroke-dashoffset:0;stroke-opacity:1"
       id="rect4604"
       width="112.73144"
       height="2.44484"
       x="6.8519001"
       y="13.987479"
       ry="3.5055898e-14" />
    <text
       xml:space="preserve"
       style="font-style:normal;font-weight:normal;font-size:10.58333302px;line-height:1.25;font-family:sans-serif;letter-spacing:0px;word-spacing:0px;fill:#025fba;fill-opacity:1;stroke:none;stroke-width:0.26458332"
       x="13.080422"
       y="23.974007"
       id="text4622"
       transform="rotate(16.250407)"><tspan
         sodipodi:role="line"
         id="tspan4620"
         x="13.080422"
         y="23.974007"
         style="font-style:normal;font-variant:normal;font-weight:normal;font-stretch:normal;font-size:25.39999962px;font-family:'Abyssinica SIL';-inkscape-font-specification:'Abyssinica SIL, Normal';font-variant-ligatures:normal;font-variant-caps:normal;font-variant-numeric:normal;font-feature-settings:normal;text-align:start;writing-mode:lr-tb;text-anchor:start;fill:#025fba;fill-opacity:1;stroke-width:0.26458332">S</tspan></text>
    <text
       xml:space="preserve"
       style="font-style:normal;font-weight:normal;font-size:10.58333302px;line-height:1.25;font-family:sans-serif;letter-spacing:0px;word-spacing:0px;fill:#025fba;fill-opacity:1;stroke:none;stroke-width:0.26458332"
       x="25.102663"
       y="21.252188"
       id="text4674"
       transform="rotate(17.710056)"><tspan
         sodipodi:role="line"
         id="tspan4672"
         x="25.102663"
         y="21.252188"
         style="font-style:normal;font-variant:normal;font-weight:normal;font-stretch:normal;font-size:25.39999962px;font-family:'Abyssinica SIL';-inkscape-font-specification:'Abyssinica SIL, Normal';font-variant-ligatures:normal;font-variant-caps:normal;font-variant-numeric:normal;font-feature-settings:normal;text-align:start;writing-mode:lr-tb;text-anchor:start;fill:#025fba;fill-opacity:1;stroke-width:0.26458332">T</tspan></text>
    <rect
       style="opacity:1;vector-effect:none;fill:#ba7500;fill-opacity:1;fill-rule:nonzero;stroke:none;stroke-width:0.40620932;stroke-linecap:butt;stroke-linejoin:miter;stroke-miterlimit:4;stroke-dasharray:none;stroke-dashoffset:0;stroke-opacity:1"
       id="rect4604-6"
       width="7.4576745"
       height="2.44484"
       x="18.342764"
       y="13.98751"
       ry="3.5055898e-14" />
    <path
       style="fill:#ba7500;fill-opacity:1;stroke:none;stroke-width:0.26499999;stroke-linecap:butt;stroke-linejoin:miter;stroke-miterlimit:4;stroke-dasharray:none;stroke-opacity:1"
       d="m 117.91922,19.12184 h 1.66841 v -2.76395 h -2.39778 c 0,0 0.20052,0.11772 0.25986,0.21262 0.0815,0.13036 0.0755,0.29821 0.1063,0.44884 0.14255,0.69678 0.36321,2.10249 0.36321,2.10249 z"
       id="path4714"
       inkscape:connector-curvature="0"
       sodipodi:nodetypes="ccccsac" />
  </g>
</svg>
